      <svg xmlns="http://www.w3.org/2000/svg" xmlns:xlink="http://www.w3.org/1999/xlink" viewBox="0 0 40 45" version="1.1" x="0px" y="0px"><title>icon-consultation@1x</title><desc>Created with Sketch.</desc><g stroke="none" stroke-width="1" fill="none" fill-rule="evenodd"><g transform="translate(-25.000000, -11.000000)" fill="#000000"><g><g transform="translate(21.000000, 6.000000)"><g transform="translate(4.000000, 5.000000)"><path d="M23.0442,27.7451 L23.0442,23.6901 L25.0442,23.6901 L25.0442,27.7451 C25.0442,29.6061 23.5362,31.1151 21.6752,31.1151 L11.6222,31.1151 C11.5712,31.1211 11.5212,31.1321 11.4802,31.1621 L5.6822,35.5051 C5.6272,35.5461 5.5672,35.5641 5.5082,35.5641 C5.3572,35.5641 5.2162,35.4451 5.2162,35.2731 L5.2162,31.3951 C5.2162,31.2451 5.0972,31.1301 4.9502,31.1151 L3.3702,31.1151 C1.5082,31.1151 0.0002,29.6061 0.0002,27.7451 L0.0002,16.2671 C0.0002,14.4071 1.5082,12.8981 3.3702,12.8981 L8.1282,12.8981 L8.1282,14.8981 L3.3702,14.8981 C2.6142,14.8981 2.0002,15.5131 2.0002,16.2671 L2.0002,27.7451 C2.0002,28.5001 2.6142,29.1151 3.3702,29.1151 L4.9502,29.1151 L5.0502,29.1151 L5.1502,29.1251 C6.3282,29.2441 7.2162,30.2201 7.2162,31.3951 L7.2162,31.8571 L10.2802,29.5621 C10.5992,29.3231 10.9712,29.1781 11.3882,29.1291 L11.5042,29.1151 L11.6222,29.1151 L21.6752,29.1151 C22.4302,29.1151 23.0442,28.5001 23.0442,27.7451 Z M35.9151,0 C38.1021,0 39.8811,1.779 39.8811,3.965 L39.8811,17.71 C39.8811,19.896 38.1021,21.675 35.9151,21.675 L33.6341,21.675 L33.6341,27.28 L26.1521,21.675 L13.9931,21.675 C11.8081,21.675 10.0291,19.896 10.0291,17.71 L10.0291,3.965 C10.0291,1.779 11.8081,0 13.9931,0 L35.9151,0 Z M37.8811,17.71 L37.8811,3.965 C37.8811,2.881 36.9991,2 35.9151,2 L13.9931,2 C12.9101,2 12.0291,2.881 12.0291,3.965 L12.0291,17.71 C12.0291,18.793 12.9101,19.675 13.9931,19.675 L26.8181,19.675 L31.6341,23.283 L31.6341,19.675 L35.9151,19.675 C36.9991,19.675 37.8811,18.793 37.8811,17.71 Z M20.4553,9.3345 C21.2833,9.3345 21.9553,10.0055 21.9553,10.8345 C21.9553,11.6635 21.2833,12.3345 20.4553,12.3345 C19.6273,12.3345 18.9553,11.6635 18.9553,10.8345 C18.9553,10.0055 19.6273,9.3345 20.4553,9.3345 Z M29.4553,9.3345 C30.2833,9.3345 30.9553,10.0055 30.9553,10.8345 C30.9553,11.6635 30.2833,12.3345 29.4553,12.3345 C28.6273,12.3345 27.9553,11.6635 27.9553,10.8345 C27.9553,10.0055 28.6273,9.3345 29.4553,9.3345 Z M24.9553,9.3345 C25.7833,9.3345 26.4553,10.0055 26.4553,10.8345 C26.4553,11.6635 25.7833,12.3345 24.9553,12.3345 C24.1273,12.3345 23.4553,11.6635 23.4553,10.8345 C23.4553,10.0055 24.1273,9.3345 24.9553,9.3345 Z"/></g></g></g></g></g><text x="0" y="51" fill="#000000" font-size="5px" font-weight="bold" font-family="'Helvetica Neue', Helvetica, Arial-Unicode, Arial, Sans-serif">Created by andrewcaliber</text><text x="0" y="56" fill="#000000" font-size="5px" font-weight="bold" font-family="'Helvetica Neue', Helvetica, Arial-Unicode, Arial, Sans-serif">from the Noun Project</text></svg>
